<svg xmlns="http://www.w3.org/2000/svg" xmlns:xlink="http://www.w3.org/1999/xlink" contentStyleType="text/css" data-diagram-type="CLASS" height="764px" preserveAspectRatio="none" style="width:1786px;height:764px;background:#FFFFFF;" version="1.1" viewBox="0 0 1786 764" width="1786px" zoomAndPan="magnify"><defs/><g><!--cluster model--><g class="cluster" data-entity="model" data-source-line="8" data-uid="ent0002" id="cluster_model"><rect fill="none" height="353.97" rx="2.5" ry="2.5" style="stroke:#000000;stroke-width:1.5;" width="379" x="119" y="7"/><text fill="#000000" font-family="sans-serif" font-size="14" font-weight="bold" lengthAdjust="spacing" textLength="48.5215" x="284.2393" y="21.9951">model</text></g><!--cluster repository--><g class="cluster" data-entity="repository" data-source-line="30" data-uid="ent0006" id="cluster_repository"><rect fill="none" height="175" rx="2.5" ry="2.5" style="stroke:#000000;stroke-width:1.5;" width="1773" x="7" y="583.97"/><text fill="#000000" font-family="sans-serif" font-size="14" font-weight="bold" lengthAdjust="spacing" textLength="81.5117" x="852.7441" y="598.9651">repository</text></g><!--cluster service--><g class="cluster" data-entity="service" data-source-line="50" data-uid="ent0022" id="cluster_service"><rect fill="none" height="83" rx="2.5" ry="2.5" style="stroke:#000000;stroke-width:1.5;" width="566" x="514" y="476.97"/><text fill="#000000" font-family="sans-serif" font-size="14" font-weight="bold" lengthAdjust="spacing" textLength="56.4512" x="768.7744" y="491.9651">service</text></g><!--cluster ui--><g class="cluster" data-entity="ui" data-source-line="62" data-uid="ent0031" id="cluster_ui"><rect fill="none" height="409.37" rx="2.5" ry="2.5" style="stroke:#000000;stroke-width:1.5;" width="526" x="535" y="43.6"/><text fill="#000000" font-family="sans-serif" font-size="14" font-weight="bold" lengthAdjust="spacing" textLength="14.7656" x="790.6172" y="58.5951">ui</text></g><!--class User--><g class="entity" data-entity="User" data-source-line="9" data-uid="ent0003" id="entity_User"><rect fill="#F1F1F1" height="105.1875" rx="2.5" ry="2.5" style="stroke:#181818;stroke-width:0.5;" width="161.7891" x="135.11" y="42"/><ellipse cx="195.7995" cy="58" fill="#ADD1B2" rx="11" ry="11" style="stroke:#181818;stroke-width:1;"/><path d="M198.7682,63.6406 Q198.1901,63.9375 197.5495,64.0781 Q196.9088,64.2344 196.2057,64.2344 Q193.7057,64.2344 192.3776,62.5938 Q191.0651,60.9375 191.0651,57.8125 Q191.0651,54.6875 192.3776,53.0313 Q193.7057,51.375 196.2057,51.375 Q196.9088,51.375 197.5495,51.5313 Q198.2057,51.6875 198.7682,51.9844 L198.7682,54.7031 Q198.1432,54.125 197.5495,53.8594 Q196.9557,53.5781 196.3307,53.5781 Q194.987,53.5781 194.2995,54.6563 Q193.612,55.7188 193.612,57.8125 Q193.612,59.9063 194.2995,60.9844 Q194.987,62.0469 196.3307,62.0469 Q196.9557,62.0469 197.5495,61.7813 Q198.1432,61.5 198.7682,60.9219 L198.7682,63.6406 Z " fill="#000000"/><text fill="#000000" font-family="sans-serif" font-size="14" lengthAdjust="spacing" textLength="31.9102" x="216.2995" y="62.8467">User</text><line style="stroke:#181818;stroke-width:0.5;" x1="136.11" x2="295.8991" y1="74" y2="74"/><text fill="#000000" font-family="sans-serif" font-size="14" lengthAdjust="spacing" textLength="49.6973" x="141.11" y="90.9951">-id : int</text><text fill="#000000" font-family="sans-serif" font-size="14" lengthAdjust="spacing" textLength="130.6895" x="141.11" y="107.292">-username : String</text><text fill="#000000" font-family="sans-serif" font-size="14" lengthAdjust="spacing" textLength="127.1621" x="141.11" y="123.5889">-password : String</text><text fill="#000000" font-family="sans-serif" font-size="14" lengthAdjust="spacing" textLength="149.7891" x="141.11" y="139.8857">-userType : UserType</text></g><!--class MeetingRoom--><g class="entity" data-entity="MeetingRoom" data-source-line="15" data-uid="ent0004" id="entity_MeetingRoom"><rect fill="#F1F1F1" height="88.8906" rx="2.5" ry="2.5" style="stroke:#181818;stroke-width:0.5;" width="150.2773" x="331.86" y="50.15"/><ellipse cx="356.4616" cy="66.15" fill="#ADD1B2" rx="11" ry="11" style="stroke:#181818;stroke-width:1;"/><path d="M359.4304,71.7906 Q358.8522,72.0875 358.2116,72.2281 Q357.571,72.3844 356.8679,72.3844 Q354.3679,72.3844 353.0397,70.7437 Q351.7272,69.0875 351.7272,65.9625 Q351.7272,62.8375 353.0397,61.1812 Q354.3679,59.525 356.8679,59.525 Q357.571,59.525 358.2116,59.6812 Q358.8679,59.8375 359.4304,60.1344 L359.4304,62.8531 Q358.8054,62.275 358.2116,62.0094 Q357.6179,61.7281 356.9929,61.7281 Q355.6491,61.7281 354.9616,62.8062 Q354.2741,63.8687 354.2741,65.9625 Q354.2741,68.0562 354.9616,69.1344 Q355.6491,70.1969 356.9929,70.1969 Q357.6179,70.1969 358.2116,69.9312 Q358.8054,69.65 359.4304,69.0719 L359.4304,71.7906 Z " fill="#000000"/><text fill="#000000" font-family="sans-serif" font-size="14" lengthAdjust="spacing" textLength="96.9404" x="372.5953" y="70.9967">MeetingRoom</text><line style="stroke:#181818;stroke-width:0.5;" x1="332.86" x2="481.1373" y1="82.15" y2="82.15"/><text fill="#000000" font-family="sans-serif" font-size="14" lengthAdjust="spacing" textLength="49.6973" x="337.86" y="99.1451">-id : int</text><text fill="#000000" font-family="sans-serif" font-size="14" lengthAdjust="spacing" textLength="138.2773" x="337.86" y="115.442">-roomName : String</text><text fill="#000000" font-family="sans-serif" font-size="14" lengthAdjust="spacing" textLength="96.0244" x="337.86" y="131.7389">-capacity : int</text></g><!--class Reservation--><g class="entity" data-entity="Reservation" data-source-line="20" data-uid="ent0005" id="entity_Reservation"><rect fill="#F1F1F1" height="137.7813" rx="2.5" ry="2.5" style="stroke:#181818;stroke-width:0.5;" width="132.2305" x="149.88" y="207.19"/><ellipse cx="172.3252" cy="223.19" fill="#ADD1B2" rx="11" ry="11" style="stroke:#181818;stroke-width:1;"/><path d="M175.294,228.8306 Q174.7158,229.1275 174.0752,229.2681 Q173.4346,229.4244 172.7315,229.4244 Q170.2315,229.4244 168.9033,227.7838 Q167.5908,226.1275 167.5908,223.0025 Q167.5908,219.8775 168.9033,218.2213 Q170.2315,216.565 172.7315,216.565 Q173.4346,216.565 174.0752,216.7213 Q174.7315,216.8775 175.294,217.1744 L175.294,219.8931 Q174.669,219.315 174.0752,219.0494 Q173.4815,218.7681 172.8565,218.7681 Q171.5127,218.7681 170.8252,219.8463 Q170.1377,220.9088 170.1377,223.0025 Q170.1377,225.0963 170.8252,226.1744 Q171.5127,227.2369 172.8565,227.2369 Q173.4815,227.2369 174.0752,226.9713 Q174.669,226.69 175.294,226.1119 L175.294,228.8306 Z " fill="#000000"/><text fill="#000000" font-family="sans-serif" font-size="14" lengthAdjust="spacing" textLength="83.6855" x="187.9797" y="228.0367">Reservation</text><line style="stroke:#181818;stroke-width:0.5;" x1="150.88" x2="281.1105" y1="239.19" y2="239.19"/><text fill="#000000" font-family="sans-serif" font-size="14" lengthAdjust="spacing" textLength="49.6973" x="155.88" y="256.1851">-id : int</text><text fill="#000000" font-family="sans-serif" font-size="14" lengthAdjust="spacing" textLength="86.4609" x="155.88" y="272.482">-roomId : int</text><text fill="#000000" font-family="sans-serif" font-size="14" lengthAdjust="spacing" textLength="120.2305" x="155.88" y="288.7789">-date : LocalDate</text><text fill="#000000" font-family="sans-serif" font-size="14" lengthAdjust="spacing" textLength="116.4229" x="155.88" y="305.0757">-startMillis : long</text><text fill="#000000" font-family="sans-serif" font-size="14" lengthAdjust="spacing" textLength="110.1885" x="155.88" y="321.3726">-endMillis : long</text><text fill="#000000" font-family="sans-serif" font-size="14" lengthAdjust="spacing" textLength="93.8369" x="155.88" y="337.6695">-owner : User</text></g><!--class UserRepository--><g class="entity" data-entity="UserRepository" data-source-line="31" data-uid="ent0007" id="entity_UserRepository"><rect fill="#F1F1F1" height="32" rx="2.5" ry="2.5" style="stroke:#181818;stroke-width:0.5;" width="138.9824" x="454.51" y="618.97"/><ellipse cx="469.51" cy="634.97" fill="#B4A7E5" rx="11" ry="11" style="stroke:#181818;stroke-width:1;"/><path d="M465.4319,630.7356 L465.4319,628.5794 L472.8225,628.5794 L472.8225,630.7356 L470.3538,630.7356 L470.3538,638.8138 L472.8225,638.8138 L472.8225,640.97 L465.4319,640.97 L465.4319,638.8138 L467.9006,638.8138 L467.9006,630.7356 L465.4319,630.7356 Z " fill="#000000"/><text fill="#000000" font-family="sans-serif" font-size="14" font-style="italic" lengthAdjust="spacing" textLength="106.9824" x="483.51" y="639.8167">UserRepository</text></g><!--class MeetingRoomRepository--><g class="entity" data-entity="MeetingRoomRepository" data-source-line="32" data-uid="ent0008" id="entity_MeetingRoomRepository"><rect fill="#F1F1F1" height="32" rx="2.5" ry="2.5" style="stroke:#181818;stroke-width:0.5;" width="204.0127" x="1090.99" y="618.97"/><ellipse cx="1105.99" cy="634.97" fill="#B4A7E5" rx="11" ry="11" style="stroke:#181818;stroke-width:1;"/><path d="M1101.9119,630.7356 L1101.9119,628.5794 L1109.3025,628.5794 L1109.3025,630.7356 L1106.8338,630.7356 L1106.8338,638.8138 L1109.3025,638.8138 L1109.3025,640.97 L1101.9119,640.97 L1101.9119,638.8138 L1104.3806,638.8138 L1104.3806,630.7356 L1101.9119,630.7356 Z " fill="#000000"/><text fill="#000000" font-family="sans-serif" font-size="14" font-style="italic" lengthAdjust="spacing" textLength="172.0127" x="1119.99" y="639.8167">MeetingRoomRepository</text></g><!--class ReservationRepository--><g class="entity" data-entity="ReservationRepository" data-source-line="33" data-uid="ent0009" id="entity_ReservationRepository"><rect fill="#F1F1F1" height="32" rx="2.5" ry="2.5" style="stroke:#181818;stroke-width:0.5;" width="190.7578" x="669.62" y="618.97"/><ellipse cx="684.62" cy="634.97" fill="#B4A7E5" rx="11" ry="11" style="stroke:#181818;stroke-width:1;"/><path d="M680.5419,630.7356 L680.5419,628.5794 L687.9325,628.5794 L687.9325,630.7356 L685.4638,630.7356 L685.4638,638.8138 L687.9325,638.8138 L687.9325,640.97 L680.5419,640.97 L680.5419,638.8138 L683.0106,638.8138 L683.0106,630.7356 L680.5419,630.7356 Z " fill="#000000"/><text fill="#000000" font-family="sans-serif" font-size="14" font-style="italic" lengthAdjust="spacing" textLength="158.7578" x="698.62" y="639.8167">ReservationRepository</text></g><!--class InMemoryUserRepository--><g class="entity" data-entity="InMemoryUserRepository" data-source-line="35" data-uid="ent0010" id="entity_InMemoryUserRepository"><rect fill="#F1F1F1" height="32" rx="2.5" ry="2.5" style="stroke:#181818;stroke-width:0.5;" width="208.9209" x="22.54" y="710.97"/><ellipse cx="37.54" cy="726.97" fill="#ADD1B2" rx="11" ry="11" style="stroke:#181818;stroke-width:1;"/><path d="M40.5088,732.6106 Q39.9306,732.9075 39.29,733.0481 Q38.6494,733.2044 37.9463,733.2044 Q35.4463,733.2044 34.1181,731.5638 Q32.8056,729.9075 32.8056,726.7825 Q32.8056,723.6575 34.1181,722.0013 Q35.4463,720.345 37.9463,720.345 Q38.6494,720.345 39.29,720.5013 Q39.9463,720.6575 40.5088,720.9544 L40.5088,723.6731 Q39.8838,723.095 39.29,722.8294 Q38.6963,722.5481 38.0713,722.5481 Q36.7275,722.5481 36.04,723.6263 Q35.3525,724.6888 35.3525,726.7825 Q35.3525,728.8763 36.04,729.9544 Q36.7275,731.0169 38.0713,731.0169 Q38.6963,731.0169 39.29,730.7513 Q39.8838,730.47 40.5088,729.8919 L40.5088,732.6106 Z " fill="#000000"/><text fill="#000000" font-family="sans-serif" font-size="14" lengthAdjust="spacing" textLength="176.9209" x="51.54" y="731.8167">InMemoryUserRepository</text></g><!--class EncryptedCsvUserRepository--><g class="entity" data-entity="EncryptedCsvUserRepository" data-source-line="36" data-uid="ent0011" id="entity_EncryptedCsvUserRepository"><rect fill="#F1F1F1" height="32" rx="2.5" ry="2.5" style="stroke:#181818;stroke-width:0.5;" width="235.6699" x="266.17" y="710.97"/><ellipse cx="281.17" cy="726.97" fill="#ADD1B2" rx="11" ry="11" style="stroke:#181818;stroke-width:1;"/><path d="M284.1388,732.6106 Q283.5606,732.9075 282.92,733.0481 Q282.2794,733.2044 281.5763,733.2044 Q279.0763,733.2044 277.7481,731.5638 Q276.4356,729.9075 276.4356,726.7825 Q276.4356,723.6575 277.7481,722.0013 Q279.0763,720.345 281.5763,720.345 Q282.2794,720.345 282.92,720.5013 Q283.5763,720.6575 284.1388,720.9544 L284.1388,723.6731 Q283.5138,723.095 282.92,722.8294 Q282.3263,722.5481 281.7013,722.5481 Q280.3575,722.5481 279.67,723.6263 Q278.9825,724.6888 278.9825,726.7825 Q278.9825,728.8763 279.67,729.9544 Q280.3575,731.0169 281.7013,731.0169 Q282.3263,731.0169 282.92,730.7513 Q283.5138,730.47 284.1388,729.8919 L284.1388,732.6106 Z " fill="#000000"/><text fill="#000000" font-family="sans-serif" font-size="14" lengthAdjust="spacing" textLength="203.6699" x="295.17" y="731.8167">EncryptedCsvUserRepository</text></g><!--class InMemoryMeetingRoomRepository--><g class="entity" data-entity="InMemoryMeetingRoomRepository" data-source-line="37" data-uid="ent0012" id="entity_InMemoryMeetingRoomRepository"><rect fill="#F1F1F1" height="32" rx="2.5" ry="2.5" style="stroke:#181818;stroke-width:0.5;" width="273.9512" x="1155.02" y="710.97"/><ellipse cx="1170.02" cy="726.97" fill="#ADD1B2" rx="11" ry="11" style="stroke:#181818;stroke-width:1;"/><path d="M1172.9888,732.6106 Q1172.4106,732.9075 1171.77,733.0481 Q1171.1294,733.2044 1170.4263,733.2044 Q1167.9263,733.2044 1166.5981,731.5638 Q1165.2856,729.9075 1165.2856,726.7825 Q1165.2856,723.6575 1166.5981,722.0013 Q1167.9263,720.345 1170.4263,720.345 Q1171.1294,720.345 1171.77,720.5013 Q1172.4263,720.6575 1172.9888,720.9544 L1172.9888,723.6731 Q1172.3638,723.095 1171.77,722.8294 Q1171.1763,722.5481 1170.5513,722.5481 Q1169.2075,722.5481 1168.52,723.6263 Q1167.8325,724.6888 1167.8325,726.7825 Q1167.8325,728.8763 1168.52,729.9544 Q1169.2075,731.0169 1170.5513,731.0169 Q1171.1763,731.0169 1171.77,730.7513 Q1172.3638,730.47 1172.9888,729.8919 L1172.9888,732.6106 Z " fill="#000000"/><text fill="#000000" font-family="sans-serif" font-size="14" lengthAdjust="spacing" textLength="241.9512" x="1184.02" y="731.8167">InMemoryMeetingRoomRepository</text></g><!--class EncryptedCsvMeetingRoomRepository--><g class="entity" data-entity="EncryptedCsvMeetingRoomRepository" data-source-line="38" data-uid="ent0013" id="entity_EncryptedCsvMeetingRoomRepository"><rect fill="#F1F1F1" height="32" rx="2.5" ry="2.5" style="stroke:#181818;stroke-width:0.5;" width="300.7002" x="1463.65" y="710.97"/><ellipse cx="1478.65" cy="726.97" fill="#ADD1B2" rx="11" ry="11" style="stroke:#181818;stroke-width:1;"/><path d="M1481.6188,732.6106 Q1481.0406,732.9075 1480.4,733.0481 Q1479.7594,733.2044 1479.0563,733.2044 Q1476.5563,733.2044 1475.2281,731.5638 Q1473.9156,729.9075 1473.9156,726.7825 Q1473.9156,723.6575 1475.2281,722.0013 Q1476.5563,720.345 1479.0563,720.345 Q1479.7594,720.345 1480.4,720.5013 Q1481.0563,720.6575 1481.6188,720.9544 L1481.6188,723.6731 Q1480.9938,723.095 1480.4,722.8294 Q1479.8063,722.5481 1479.1813,722.5481 Q1477.8375,722.5481 1477.15,723.6263 Q1476.4625,724.6888 1476.4625,726.7825 Q1476.4625,728.8763 1477.15,729.9544 Q1477.8375,731.0169 1479.1813,731.0169 Q1479.8063,731.0169 1480.4,730.7513 Q1480.9938,730.47 1481.6188,729.8919 L1481.6188,732.6106 Z " fill="#000000"/><text fill="#000000" font-family="sans-serif" font-size="14" lengthAdjust="spacing" textLength="268.7002" x="1492.65" y="731.8167">EncryptedCsvMeetingRoomRepository</text></g><!--class InMemoryReservationRepository--><g class="entity" data-entity="InMemoryReservationRepository" data-source-line="39" data-uid="ent0014" id="entity_InMemoryReservationRepository"><rect fill="#F1F1F1" height="32" rx="2.5" ry="2.5" style="stroke:#181818;stroke-width:0.5;" width="260.6963" x="536.65" y="710.97"/><ellipse cx="551.65" cy="726.97" fill="#ADD1B2" rx="11" ry="11" style="stroke:#181818;stroke-width:1;"/><path d="M554.6188,732.6106 Q554.0406,732.9075 553.4,733.0481 Q552.7594,733.2044 552.0563,733.2044 Q549.5563,733.2044 548.2281,731.5638 Q546.9156,729.9075 546.9156,726.7825 Q546.9156,723.6575 548.2281,722.0013 Q549.5563,720.345 552.0563,720.345 Q552.7594,720.345 553.4,720.5013 Q554.0563,720.6575 554.6188,720.9544 L554.6188,723.6731 Q553.9938,723.095 553.4,722.8294 Q552.8063,722.5481 552.1813,722.5481 Q550.8375,722.5481 550.15,723.6263 Q549.4625,724.6888 549.4625,726.7825 Q549.4625,728.8763 550.15,729.9544 Q550.8375,731.0169 552.1813,731.0169 Q552.8063,731.0169 553.4,730.7513 Q553.9938,730.47 554.6188,729.8919 L554.6188,732.6106 Z " fill="#000000"/><text fill="#000000" font-family="sans-serif" font-size="14" lengthAdjust="spacing" textLength="228.6963" x="565.65" y="731.8167">InMemoryReservationRepository</text></g><!--class EncryptedCsvReservationRepository--><g class="entity" data-entity="EncryptedCsvReservationRepository" data-source-line="40" data-uid="ent0015" id="entity_EncryptedCsvReservationRepository"><rect fill="#F1F1F1" height="32" rx="2.5" ry="2.5" style="stroke:#181818;stroke-width:0.5;" width="287.4453" x="832.28" y="710.97"/><ellipse cx="847.28" cy="726.97" fill="#ADD1B2" rx="11" ry="11" style="stroke:#181818;stroke-width:1;"/><path d="M850.2488,732.6106 Q849.6706,732.9075 849.03,733.0481 Q848.3894,733.2044 847.6863,733.2044 Q845.1863,733.2044 843.8581,731.5638 Q842.5456,729.9075 842.5456,726.7825 Q842.5456,723.6575 843.8581,722.0013 Q845.1863,720.345 847.6863,720.345 Q848.3894,720.345 849.03,720.5013 Q849.6863,720.6575 850.2488,720.9544 L850.2488,723.6731 Q849.6238,723.095 849.03,722.8294 Q848.4363,722.5481 847.8113,722.5481 Q846.4675,722.5481 845.78,723.6263 Q845.0925,724.6888 845.0925,726.7825 Q845.0925,728.8763 845.78,729.9544 Q846.4675,731.0169 847.8113,731.0169 Q848.4363,731.0169 849.03,730.7513 Q849.6238,730.47 850.2488,729.8919 L850.2488,732.6106 Z " fill="#000000"/><text fill="#000000" font-family="sans-serif" font-size="14" lengthAdjust="spacing" textLength="255.4453" x="861.28" y="731.8167">EncryptedCsvReservationRepository</text></g><!--class AuthService--><g class="entity" data-entity="AuthService" data-source-line="51" data-uid="ent0023" id="entity_AuthService"><rect fill="#F1F1F1" height="32" rx="2.5" ry="2.5" style="stroke:#181818;stroke-width:0.5;" width="116.5537" x="529.72" y="511.97"/><ellipse cx="544.72" cy="527.97" fill="#ADD1B2" rx="11" ry="11" style="stroke:#181818;stroke-width:1;"/><path d="M547.6888,533.6106 Q547.1106,533.9075 546.47,534.0481 Q545.8294,534.2044 545.1263,534.2044 Q542.6263,534.2044 541.2981,532.5638 Q539.9856,530.9075 539.9856,527.7825 Q539.9856,524.6575 541.2981,523.0013 Q542.6263,521.345 545.1263,521.345 Q545.8294,521.345 546.47,521.5013 Q547.1263,521.6575 547.6888,521.9544 L547.6888,524.6731 Q547.0638,524.095 546.47,523.8294 Q545.8763,523.5481 545.2513,523.5481 Q543.9075,523.5481 543.22,524.6263 Q542.5325,525.6888 542.5325,527.7825 Q542.5325,529.8763 543.22,530.9544 Q543.9075,532.0169 545.2513,532.0169 Q545.8763,532.0169 546.47,531.7513 Q547.0638,531.47 547.6888,530.8919 L547.6888,533.6106 Z " fill="#000000"/><text fill="#000000" font-family="sans-serif" font-size="14" lengthAdjust="spacing" textLength="84.5537" x="558.72" y="532.8167">AuthService</text></g><!--class MeetingRoomService--><g class="entity" data-entity="MeetingRoomService" data-source-line="52" data-uid="ent0024" id="entity_MeetingRoomService"><rect fill="#F1F1F1" height="32" rx="2.5" ry="2.5" style="stroke:#181818;stroke-width:0.5;" width="180.6816" x="883.66" y="511.97"/><ellipse cx="898.66" cy="527.97" fill="#ADD1B2" rx="11" ry="11" style="stroke:#181818;stroke-width:1;"/><path d="M901.6288,533.6106 Q901.0506,533.9075 900.41,534.0481 Q899.7694,534.2044 899.0663,534.2044 Q896.5663,534.2044 895.2381,532.5638 Q893.9256,530.9075 893.9256,527.7825 Q893.9256,524.6575 895.2381,523.0013 Q896.5663,521.345 899.0663,521.345 Q899.7694,521.345 900.41,521.5013 Q901.0663,521.6575 901.6288,521.9544 L901.6288,524.6731 Q901.0038,524.095 900.41,523.8294 Q899.8163,523.5481 899.1913,523.5481 Q897.8475,523.5481 897.16,524.6263 Q896.4725,525.6888 896.4725,527.7825 Q896.4725,529.8763 897.16,530.9544 Q897.8475,532.0169 899.1913,532.0169 Q899.8163,532.0169 900.41,531.7513 Q901.0038,531.47 901.6288,530.8919 L901.6288,533.6106 Z " fill="#000000"/><text fill="#000000" font-family="sans-serif" font-size="14" lengthAdjust="spacing" textLength="148.6816" x="912.66" y="532.8167">MeetingRoomService</text></g><!--class ReservationService--><g class="entity" data-entity="ReservationService" data-source-line="53" data-uid="ent0025" id="entity_ReservationService"><rect fill="#F1F1F1" height="32" rx="2.5" ry="2.5" style="stroke:#181818;stroke-width:0.5;" width="167.4268" x="681.29" y="511.97"/><ellipse cx="696.29" cy="527.97" fill="#ADD1B2" rx="11" ry="11" style="stroke:#181818;stroke-width:1;"/><path d="M699.2588,533.6106 Q698.6806,533.9075 698.04,534.0481 Q697.3994,534.2044 696.6963,534.2044 Q694.1963,534.2044 692.8681,532.5638 Q691.5556,530.9075 691.5556,527.7825 Q691.5556,524.6575 692.8681,523.0013 Q694.1963,521.345 696.6963,521.345 Q697.3994,521.345 698.04,521.5013 Q698.6963,521.6575 699.2588,521.9544 L699.2588,524.6731 Q698.6338,524.095 698.04,523.8294 Q697.4463,523.5481 696.8213,523.5481 Q695.4775,523.5481 694.79,524.6263 Q694.1025,525.6888 694.1025,527.7825 Q694.1025,529.8763 694.79,530.9544 Q695.4775,532.0169 696.8213,532.0169 Q697.4463,532.0169 698.04,531.7513 Q698.6338,531.47 699.2588,530.8919 L699.2588,533.6106 Z " fill="#000000"/><text fill="#000000" font-family="sans-serif" font-size="14" lengthAdjust="spacing" textLength="135.4268" x="710.29" y="532.8167">ReservationService</text></g><!--class ConsoleApp--><g class="entity" data-entity="ConsoleApp" data-source-line="63" data-uid="ent0032" id="entity_ConsoleApp"><rect fill="#F1F1F1" height="32" rx="2.5" ry="2.5" style="stroke:#181818;stroke-width:0.5;" width="114.9268" x="707.54" y="78.6"/><ellipse cx="722.54" cy="94.6" fill="#ADD1B2" rx="11" ry="11" style="stroke:#181818;stroke-width:1;"/><path d="M725.5088,100.2406 Q724.9306,100.5375 724.29,100.6781 Q723.6494,100.8344 722.9463,100.8344 Q720.4463,100.8344 719.1181,99.1938 Q717.8056,97.5375 717.8056,94.4125 Q717.8056,91.2875 719.1181,89.6313 Q720.4463,87.975 722.9463,87.975 Q723.6494,87.975 724.29,88.1313 Q724.9463,88.2875 725.5088,88.5844 L725.5088,91.3031 Q724.8838,90.725 724.29,90.4594 Q723.6963,90.1781 723.0713,90.1781 Q721.7275,90.1781 721.04,91.2563 Q720.3525,92.3188 720.3525,94.4125 Q720.3525,96.5063 721.04,97.5844 Q721.7275,98.6469 723.0713,98.6469 Q723.6963,98.6469 724.29,98.3813 Q724.8838,98.1 725.5088,97.5219 L725.5088,100.2406 Z " fill="#000000"/><text fill="#000000" font-family="sans-serif" font-size="14" lengthAdjust="spacing" textLength="82.9268" x="736.54" y="99.4467">ConsoleApp</text></g><!--class MainMenu--><g class="entity" data-entity="MainMenu" data-source-line="64" data-uid="ent0033" id="entity_MainMenu"><rect fill="#F1F1F1" height="32" rx="2.5" ry="2.5" style="stroke:#181818;stroke-width:0.5;" width="103.8594" x="713.07" y="260.08"/><ellipse cx="728.07" cy="276.08" fill="#ADD1B2" rx="11" ry="11" style="stroke:#181818;stroke-width:1;"/><path d="M731.0388,281.7206 Q730.4606,282.0175 729.82,282.1581 Q729.1794,282.3144 728.4763,282.3144 Q725.9763,282.3144 724.6481,280.6738 Q723.3356,279.0175 723.3356,275.8925 Q723.3356,272.7675 724.6481,271.1113 Q725.9763,269.455 728.4763,269.455 Q729.1794,269.455 729.82,269.6113 Q730.4763,269.7675 731.0388,270.0644 L731.0388,272.7831 Q730.4138,272.205 729.82,271.9394 Q729.2263,271.6581 728.6013,271.6581 Q727.2575,271.6581 726.57,272.7363 Q725.8825,273.7988 725.8825,275.8925 Q725.8825,277.9863 726.57,279.0644 Q727.2575,280.1269 728.6013,280.1269 Q729.2263,280.1269 729.82,279.8613 Q730.4138,279.58 731.0388,279.0019 L731.0388,281.7206 Z " fill="#000000"/><text fill="#000000" font-family="sans-serif" font-size="14" lengthAdjust="spacing" textLength="71.8594" x="742.07" y="280.9267">MainMenu</text></g><!--class UserMenu--><g class="entity" data-entity="UserMenu" data-source-line="65" data-uid="ent0034" id="entity_UserMenu"><rect fill="#F1F1F1" height="32" rx="2.5" ry="2.5" style="stroke:#181818;stroke-width:0.5;" width="102.3486" x="550.83" y="404.97"/><ellipse cx="565.83" cy="420.97" fill="#ADD1B2" rx="11" ry="11" style="stroke:#181818;stroke-width:1;"/><path d="M568.7988,426.6106 Q568.2206,426.9075 567.58,427.0481 Q566.9394,427.2044 566.2363,427.2044 Q563.7363,427.2044 562.4081,425.5638 Q561.0956,423.9075 561.0956,420.7825 Q561.0956,417.6575 562.4081,416.0013 Q563.7363,414.345 566.2363,414.345 Q566.9394,414.345 567.58,414.5013 Q568.2363,414.6575 568.7988,414.9544 L568.7988,417.6731 Q568.1738,417.095 567.58,416.8294 Q566.9863,416.5481 566.3613,416.5481 Q565.0175,416.5481 564.33,417.6263 Q563.6425,418.6888 563.6425,420.7825 Q563.6425,422.8763 564.33,423.9544 Q565.0175,425.0169 566.3613,425.0169 Q566.9863,425.0169 567.58,424.7513 Q568.1738,424.47 568.7988,423.8919 L568.7988,426.6106 Z " fill="#000000"/><text fill="#000000" font-family="sans-serif" font-size="14" lengthAdjust="spacing" textLength="70.3486" x="579.83" y="425.8167">UserMenu</text></g><!--class MeetingRoomMenu--><g class="entity" data-entity="MeetingRoomMenu" data-source-line="66" data-uid="ent0035" id="entity_MeetingRoomMenu"><rect fill="#F1F1F1" height="32" rx="2.5" ry="2.5" style="stroke:#181818;stroke-width:0.5;" width="167.3789" x="877.31" y="404.97"/><ellipse cx="892.31" cy="420.97" fill="#ADD1B2" rx="11" ry="11" style="stroke:#181818;stroke-width:1;"/><path d="M895.2788,426.6106 Q894.7006,426.9075 894.06,427.0481 Q893.4194,427.2044 892.7163,427.2044 Q890.2163,427.2044 888.8881,425.5638 Q887.5756,423.9075 887.5756,420.7825 Q887.5756,417.6575 888.8881,416.0013 Q890.2163,414.345 892.7163,414.345 Q893.4194,414.345 894.06,414.5013 Q894.7163,414.6575 895.2788,414.9544 L895.2788,417.6731 Q894.6538,417.095 894.06,416.8294 Q893.4663,416.5481 892.8413,416.5481 Q891.4975,416.5481 890.81,417.6263 Q890.1225,418.6888 890.1225,420.7825 Q890.1225,422.8763 890.81,423.9544 Q891.4975,425.0169 892.8413,425.0169 Q893.4663,425.0169 894.06,424.7513 Q894.6538,424.47 895.2788,423.8919 L895.2788,426.6106 Z " fill="#000000"/><text fill="#000000" font-family="sans-serif" font-size="14" lengthAdjust="spacing" textLength="135.3789" x="906.31" y="425.8167">MeetingRoomMenu</text></g><!--class ReservationMenu--><g class="entity" data-entity="ReservationMenu" data-source-line="67" data-uid="ent0036" id="entity_ReservationMenu"><rect fill="#F1F1F1" height="32" rx="2.5" ry="2.5" style="stroke:#181818;stroke-width:0.5;" width="154.124" x="687.94" y="404.97"/><ellipse cx="702.94" cy="420.97" fill="#ADD1B2" rx="11" ry="11" style="stroke:#181818;stroke-width:1;"/><path d="M705.9088,426.6106 Q705.3306,426.9075 704.69,427.0481 Q704.0494,427.2044 703.3463,427.2044 Q700.8463,427.2044 699.5181,425.5638 Q698.2056,423.9075 698.2056,420.7825 Q698.2056,417.6575 699.5181,416.0013 Q700.8463,414.345 703.3463,414.345 Q704.0494,414.345 704.69,414.5013 Q705.3463,414.6575 705.9088,414.9544 L705.9088,417.6731 Q705.2838,417.095 704.69,416.8294 Q704.0963,416.5481 703.4713,416.5481 Q702.1275,416.5481 701.44,417.6263 Q700.7525,418.6888 700.7525,420.7825 Q700.7525,422.8763 701.44,423.9544 Q702.1275,425.0169 703.4713,425.0169 Q704.0963,425.0169 704.69,424.7513 Q705.2838,424.47 705.9088,423.8919 L705.9088,426.6106 Z " fill="#000000"/><text fill="#000000" font-family="sans-serif" font-size="14" lengthAdjust="spacing" textLength="122.124" x="716.94" y="425.8167">ReservationMenu</text></g><!--reverse link UserRepository to InMemoryUserRepository--><g class="link" data-entity-1="UserRepository" data-entity-2="InMemoryUserRepository" data-source-line="42" data-uid="lnk16" id="link_UserRepository_InMemoryUserRepository"><path codeLine="42" d="M438.1955,655.42 C365.3755,671.93 268.22,693.96 195.35,710.47" fill="none" id="UserRepository-backto-InMemoryUserRepository" style="stroke:#181818;stroke-width:1;"/><polygon fill="none" points="455.75,651.44,436.8689,649.5685,439.5222,661.2715,455.75,651.44" style="stroke:#181818;stroke-width:1;"/></g><!--reverse link UserRepository to EncryptedCsvUserRepository--><g class="link" data-entity-1="UserRepository" data-entity-2="EncryptedCsvUserRepository" data-source-line="43" data-uid="lnk17" id="link_UserRepository_EncryptedCsvUserRepository"><path codeLine="43" d="M484.7899,661.1754 C458.9899,677.7654 433.43,694.19 407.75,710.7" fill="none" id="UserRepository-backto-EncryptedCsvUserRepository" style="stroke:#181818;stroke-width:1;"/><polygon fill="none" points="499.93,651.44,481.5448,656.1287,488.0351,666.2221,499.93,651.44" style="stroke:#181818;stroke-width:1;"/></g><!--reverse link MeetingRoomRepository to InMemoryMeetingRoomRepository--><g class="link" data-entity-1="MeetingRoomRepository" data-entity-2="InMemoryMeetingRoomRepository" data-source-line="44" data-uid="lnk18" id="link_MeetingRoomRepository_InMemoryMeetingRoomRepository"><path codeLine="44" d="M1223.1106,663.3463 C1241.3206,679.8963 1256.89,694.05 1275.12,710.63" fill="none" id="MeetingRoomRepository-backto-InMemoryMeetingRoomRepository" style="stroke:#181818;stroke-width:1;"/><polygon fill="none" points="1209.79,651.24,1219.0751,667.7865,1227.146,658.9061,1209.79,651.24" style="stroke:#181818;stroke-width:1;"/></g><!--reverse link MeetingRoomRepository to EncryptedCsvMeetingRoomRepository--><g class="link" data-entity-1="MeetingRoomRepository" data-entity-2="EncryptedCsvMeetingRoomRepository" data-source-line="45" data-uid="lnk19" id="link_MeetingRoomRepository_EncryptedCsvMeetingRoomRepository"><path codeLine="45" d="M1282.9723,655.203 C1360.2023,671.713 1464.24,693.96 1541.52,710.47" fill="none" id="MeetingRoomRepository-backto-EncryptedCsvMeetingRoomRepository" style="stroke:#181818;stroke-width:1;"/><polygon fill="none" points="1265.37,651.44,1281.718,661.0704,1284.2266,649.3355,1265.37,651.44" style="stroke:#181818;stroke-width:1;"/></g><!--reverse link ReservationRepository to InMemoryReservationRepository--><g class="link" data-entity-1="ReservationRepository" data-entity-2="InMemoryReservationRepository" data-source-line="46" data-uid="lnk20" id="link_ReservationRepository_InMemoryReservationRepository"><path codeLine="46" d="M735.1195,663.412 C717.0895,679.962 701.76,694.05 683.71,710.63" fill="none" id="ReservationRepository-backto-InMemoryReservationRepository" style="stroke:#181818;stroke-width:1;"/><polygon fill="none" points="748.38,651.24,731.0621,658.9919,739.1768,667.8322,748.38,651.24" style="stroke:#181818;stroke-width:1;"/></g><!--reverse link ReservationRepository to EncryptedCsvReservationRepository--><g class="link" data-entity-1="ReservationRepository" data-entity-2="EncryptedCsvReservationRepository" data-source-line="47" data-uid="lnk21" id="link_ReservationRepository_EncryptedCsvReservationRepository"><path codeLine="47" d="M817.8263,658.5032 C856.5963,675.0432 901.13,694.03 939.85,710.55" fill="none" id="ReservationRepository-backto-EncryptedCsvReservationRepository" style="stroke:#181818;stroke-width:1;"/><polygon fill="none" points="801.27,651.44,815.4719,664.022,820.1807,652.9845,801.27,651.44" style="stroke:#181818;stroke-width:1;"/></g><!--link AuthService to UserRepository--><g class="link" data-entity-1="AuthService" data-entity-2="UserRepository" data-source-line="55" data-uid="lnk26" id="link_AuthService_UserRepository"><path codeLine="55" d="M578.56,544.46 C566.39,564.43 548.4834,593.7971 536.3934,613.6271" fill="none" id="AuthService-to-UserRepository" style="stroke:#181818;stroke-width:1;"/><polygon fill="#181818" points="533.27,618.75,541.3704,613.1478,535.8728,614.4809,534.5398,608.9833,533.27,618.75" style="stroke:#181818;stroke-width:1;"/></g><!--link MeetingRoomService to MeetingRoomRepository--><g class="link" data-entity-1="MeetingRoomService" data-entity-2="MeetingRoomRepository" data-source-line="56" data-uid="lnk27" id="link_MeetingRoomService_MeetingRoomRepository"><path codeLine="56" d="M1006.31,544.46 C1047.84,564.37 1114.0793,596.137 1155.4993,615.987" fill="none" id="MeetingRoomService-to-MeetingRoomRepository" style="stroke:#181818;stroke-width:1;"/><polygon fill="#181818" points="1160.91,618.58,1154.5226,611.0833,1156.401,616.4191,1151.0652,618.2976,1160.91,618.58" style="stroke:#181818;stroke-width:1;"/></g><!--link ReservationService to ReservationRepository--><g class="link" data-entity-1="ReservationService" data-entity-2="ReservationRepository" data-source-line="57" data-uid="lnk28" id="link_ReservationService_ReservationRepository"><path codeLine="57" d="M765,544.46 C765,564.43 765,592.92 765,612.75" fill="none" id="ReservationService-to-ReservationRepository" style="stroke:#181818;stroke-width:1;"/><polygon fill="#181818" points="765,618.75,769,609.75,765,613.75,761,609.75,765,618.75" style="stroke:#181818;stroke-width:1;"/></g><!--link ReservationService to MeetingRoomRepository--><g class="link" data-entity-1="ReservationService" data-entity-2="MeetingRoomRepository" data-source-line="58" data-uid="lnk29" id="link_ReservationService_MeetingRoomRepository"><path codeLine="58" d="M800.49,544.37 C819.62,552.24 843.81,561.5 866,567.97 C941.34,589.95 1022.6179,606.1267 1088.0179,617.4467" fill="none" id="ReservationService-to-MeetingRoomRepository" style="stroke:#181818;stroke-width:1;"/><polygon fill="#181818" points="1093.93,618.47,1085.7441,612.9936,1089.0033,617.6172,1084.3797,620.8764,1093.93,618.47" style="stroke:#181818;stroke-width:1;"/></g><!--link ReservationService to UserRepository--><g class="link" data-entity-1="ReservationService" data-entity-2="UserRepository" data-source-line="59" data-uid="lnk30" id="link_ReservationService_UserRepository"><path codeLine="59" d="M726.95,544.45 C704.97,553.48 676.85,565.18 652,575.97 C619.67,590.02 588.5001,604.1708 562.7401,616.0308" fill="none" id="ReservationService-to-UserRepository" style="stroke:#181818;stroke-width:1;"/><polygon fill="#181818" points="557.29,618.54,567.138,618.4095,561.8318,616.449,563.7923,611.1427,557.29,618.54" style="stroke:#181818;stroke-width:1;"/></g><!--link ConsoleApp to MainMenu--><g class="link" data-entity-1="ConsoleApp" data-entity-2="MainMenu" data-source-line="69" data-uid="lnk37" id="link_ConsoleApp_MainMenu"><path codeLine="69" d="M765,110.9 C765,144.81 765,219.94 765,253.82" fill="none" id="ConsoleApp-to-MainMenu" style="stroke:#181818;stroke-width:1;"/><polygon fill="#181818" points="765,259.82,769,250.82,765,254.82,761,250.82,765,259.82" style="stroke:#181818;stroke-width:1;"/></g><!--link MainMenu to UserMenu--><g class="link" data-entity-1="MainMenu" data-entity-2="UserMenu" data-source-line="70" data-uid="lnk38" id="link_MainMenu_UserMenu"><path codeLine="70" d="M747.56,292.37 C716.18,319.87 655.1119,373.4149 623.8319,400.8349" fill="none" id="MainMenu-to-UserMenu" style="stroke:#181818;stroke-width:1;"/><polygon fill="#181818" points="619.32,404.79,628.7246,401.8653,623.0799,401.4941,623.4511,395.8494,619.32,404.79" style="stroke:#181818;stroke-width:1;"/></g><!--link MainMenu to MeetingRoomMenu--><g class="link" data-entity-1="MainMenu" data-entity-2="MeetingRoomMenu" data-source-line="71" data-uid="lnk39" id="link_MainMenu_MeetingRoomMenu"><path codeLine="71" d="M785.98,292.37 C823.6,319.8 897.3013,373.5359 935.0313,401.0359" fill="none" id="MainMenu-to-MeetingRoomMenu" style="stroke:#181818;stroke-width:1;"/><polygon fill="#181818" points="939.88,404.57,934.9629,396.0364,935.8394,401.6249,930.2508,402.5014,939.88,404.57" style="stroke:#181818;stroke-width:1;"/></g><!--link MainMenu to ReservationMenu--><g class="link" data-entity-1="MainMenu" data-entity-2="ReservationMenu" data-source-line="72" data-uid="lnk40" id="link_MainMenu_ReservationMenu"><path codeLine="72" d="M765,292.37 C765,319.87 765,371.37 765,398.79" fill="none" id="MainMenu-to-ReservationMenu" style="stroke:#181818;stroke-width:1;"/><polygon fill="#181818" points="765,404.79,769,395.79,765,399.79,761,395.79,765,404.79" style="stroke:#181818;stroke-width:1;"/></g><!--link UserMenu to AuthService--><g class="link" data-entity-1="UserMenu" data-entity-2="AuthService" data-source-line="73" data-uid="lnk41" id="link_UserMenu_AuthService"><path codeLine="73" d="M599.93,437.46 C597.27,457.43 593.4618,485.9725 590.8218,505.8025" fill="none" id="UserMenu-to-AuthService" style="stroke:#181818;stroke-width:1;"/><polygon fill="#181818" points="590.03,511.75,595.1827,503.3566,590.6898,506.7937,587.2527,502.3008,590.03,511.75" style="stroke:#181818;stroke-width:1;"/></g><!--link MeetingRoomMenu to MeetingRoomService--><g class="link" data-entity-1="MeetingRoomMenu" data-entity-2="MeetingRoomService" data-source-line="74" data-uid="lnk42" id="link_MeetingRoomMenu_MeetingRoomService"><path codeLine="74" d="M962.92,437.46 C965.39,457.43 968.9213,485.9656 971.3813,505.7956" fill="none" id="MeetingRoomMenu-to-MeetingRoomService" style="stroke:#181818;stroke-width:1;"/><polygon fill="#181818" points="972.12,511.75,974.9816,502.326,971.5044,506.788,967.0424,503.3109,972.12,511.75" style="stroke:#181818;stroke-width:1;"/></g><!--link ReservationMenu to ReservationService--><g class="link" data-entity-1="ReservationMenu" data-entity-2="ReservationService" data-source-line="75" data-uid="lnk43" id="link_ReservationMenu_ReservationService"><path codeLine="75" d="M765,437.46 C765,457.43 765,485.92 765,505.75" fill="none" id="ReservationMenu-to-ReservationService" style="stroke:#181818;stroke-width:1;"/><polygon fill="#181818" points="765,511.75,769,502.75,765,506.75,761,502.75,765,511.75" style="stroke:#181818;stroke-width:1;"/></g><!--SRC=[fLJDRjD06BpxALOzK3X4uemGKbGuH6eGIiW3REsFTDNrhhMxRXKWbnWXdW4k7BXmW8AAL1NrRTmA7eFF_xkERIB8oPwPdVc-iUDzSdFz_lUNRxTVFztyVFVhnvjqSvbkhjBaRPfy92EIRixJv3CYjnyko1sIiSbrklcU9XSbUFSPfy8ifeVtl7rNFlhNd-STim08X95PaH328r3QqoTCH5JHa4JKFw5Bc9iL1wB0DrGiELW2drEjnyOeTXGRcFXIpDbB8FSzhpnAza8P0DyZhpnIgCb2Wyfl2MxD0lA0C67AsnWvGKD0S8wcObdY4Huyaofeuvd- -IhAz8lo4fbrdJK5CAYUIHdsHIhaddP4-XHNO5XB9MvSPu1PfzGmAOPS9ouKK9E574gVyiTuNSBQK6McZ7EcaUMo7W14q0NBCu7z5VlcKwsjiXL4KZCZrQfe7DD1lQ0-vF9PpJgKLLAFmbhOKjHzJCGKGaIsCWhwYV3LAZ8G7EZJ7adbq3VAjj6milBh7hpBhtT5TsBoyFLerBzmbtXm_Surt92-JGUExb9Kvy9kSbzx0qV_NgdzkcOyyy7-EenZSpmluAv_SPkoCYeAESi4lusFo53jjcw7hcpv3ltyXtjhQBktcDcL7KYX9OTn53MDKORFKCJEHzS1h64St1ecnv5e_8ir6k_gifwt2zzESkXs8AcDSjfz7rfURVz6s79j9rN2zHy0]--></g></svg>